<svg id="图层_1" data-name="图层 1" xmlns="http://www.w3.org/2000/svg" viewBox="0 0 224.93 224.93"><defs><style>.cls-1{fill:#bcac84;}.cls-2{fill:#350989;}</style></defs><title>自然道logo 没有文字</title><circle class="cls-1" cx="112.47" cy="112.47" r="112.47"/><path class="cls-2" d="M368.46,243.08l29.16-45.17,14.21-46.8s-26.29-5.57-43.6-19.6c-17.27,14-43.14,19.6-43.14,19.6l14.21,46.8Z" transform="translate(-256.07 -130.49)"/><path class="cls-2" d="M368.46,243.08l3.13,53.67,16.15,46.17s24.51-11,46.76-9.92c5.66-21.52,23.26-41.28,23.26-41.28l-39.1-29.39Z" transform="translate(-256.07 -130.49)"/><path class="cls-2" d="M368.46,243.08l-50.14,19.4-39,29.51s18,20,23.75,41.48c22.22-1.2,46.42,9.51,46.42,9.51l16-46.22Z" transform="translate(-256.07 -130.49)"/><path class="cls-2" d="M368.46,243.08l-33.83-41.79-40-28.09s-13.48,23.24-32.21,35.31c7.95,20.78,5.17,47.1,5.17,47.1l48.9,1.09Z" transform="translate(-256.07 -130.49)"/><path class="cls-2" d="M368.46,243.08l51.9,14,48.91-.7s-2.71-26.74,5.4-47.5c-18.63-12.17-31.8-35.12-31.8-35.12l-40.26,27.78Z" transform="translate(-256.07 -130.49)"/></svg>