<svg id="图层_1" data-name="图层 1" xmlns="http://www.w3.org/2000/svg" viewBox="0 0 400.1 283.57"><defs><style>.cls-1{fill:#fff;}.cls-2,.cls-4{fill:#bcac84;}.cls-3,.cls-7{fill:#350989;}.cls-4{font-size:49.31px;font-family:LibertyD;letter-spacing:-0.05em;}.cls-5{letter-spacing:-0.04em;}.cls-6{letter-spacing:0em;}.cls-7{writing-mode:tb;text-orientation:upright;glyph-orientation-vertical:0deg;font-size:17.02px;font-family:TRENDS, ShiShangZhongHeiJianTi;letter-spacing:-0.2em;}</style></defs><title>自然道logo</title><rect class="cls-1" width="400.1" height="283.57"/><circle class="cls-2" cx="200.05" cy="101.25" r="74.61"/><path class="cls-3" d="M368.48,243l19.35-30L397.25,182s-17.44-3.69-28.92-13c-11.45,9.31-28.61,13-28.61,13l9.42,31.05Z" transform="translate(-168.48 -141.71)"/><path class="cls-3" d="M368.48,243l2.08,35.6,10.72,30.63s16.25-7.32,31-6.58c3.75-14.28,15.43-27.39,15.43-27.39l-25.94-19.49Z" transform="translate(-168.48 -141.71)"/><path class="cls-3" d="M368.48,243l-33.26,12.87-25.87,19.58S321.29,288.72,325.1,303c14.74-.8,30.8,6.31,30.8,6.31l10.62-30.66Z" transform="translate(-168.48 -141.71)"/><path class="cls-3" d="M368.48,243,346,215.32l-26.56-18.64s-8.94,15.42-21.37,23.43c5.28,13.78,3.43,31.24,3.43,31.24l32.44.72Z" transform="translate(-168.48 -141.71)"/><path class="cls-3" d="M368.48,243l34.43,9.3,32.45-.47s-1.8-17.73,3.58-31.5c-12.36-8.08-21.1-23.3-21.1-23.3l-26.7,18.43Z" transform="translate(-168.48 -141.71)"/><rect class="cls-3" x="66.51" y="197.51" width="244.55" height="47.94"/><text class="cls-4" transform="translate(207.65 238.98)">D<tspan class="cls-5" x="29.59" y="0">A</tspan><tspan class="cls-6" x="58.77" y="0">O</tspan></text><text class="cls-7" transform="translate(325.08 193.72)">自然道</text><path class="cls-2" d="M268.56,382.09l-17.22-24.66v19.75a4.2,4.2,0,0,0,.42,2.28,2.15,2.15,0,0,0,1.75.63v.6h-9.13v-.6a2.17,2.17,0,0,0,1.75-.63,4.2,4.2,0,0,0,.42-2.28V351.34a4.27,4.27,0,0,0-.42-2.29,2.2,2.2,0,0,0-1.75-.62v-.61h6.72L263.76,366V351.34a4.27,4.27,0,0,0-.42-2.29,2.18,2.18,0,0,0-1.74-.62v-.61h9.12v.61a2.18,2.18,0,0,0-1.74.62,4.27,4.27,0,0,0-.42,2.29Z" transform="translate(-168.48 -141.71)"/><path class="cls-2" d="M289.31,377.34c0,.64.29,1.23.92,1.23a2.86,2.86,0,0,0,2.06-.84c.14-.1.21-.2.36-.2s.21.1.21.25a4,4,0,0,1-3.69,2.91,5.36,5.36,0,0,1-4.19-1.87,8.48,8.48,0,0,1-4.89,1.87c-2.77,0-6.17-1.23-6.17-8,0-5.52,1.2-7,9-11.34,1.42-.79,1.42-1.23,1.42-3.26s-.71-2.71-3-2.71a13.81,13.81,0,0,0-6.32,2,1,1,0,0,1-.56.15c-.15,0-.22-.1-.22-.25,0-.59,4.05-4,8-4,2.55,0,7,1.09,7,6.17Zm-5-14.6h-.15c-3.9,2.32-5,4-5,9.07,0,5.63.78,6.76,2.34,6.76a3,3,0,0,0,2.84-2.91Z" transform="translate(-168.48 -141.71)"/><path class="cls-2" d="M300.8,376.8a1.68,1.68,0,0,0,1.71,1.77,3.19,3.19,0,0,0,2.19-1,1,1,0,0,1,.43-.19.21.21,0,0,1,.21.29,4.81,4.81,0,0,1-4.89,3.06c-3,0-4.61-.94-4.61-5v-20c0-.2,0-.5-.22-.64l-2.05-1.38c-.14-.1-.36-.2-.36-.3s.29-.3,1-.35c3.12-.39,3.47-4.14,3.47-6.11,0-.25.21-.45.57-.45h2.13c.28,0,.42.1.42.35v5.67c0,.25.07.44.57.44H303c.36,0,.43.35,0,.6l-1.63,1.28c-.21.25-.57.54-.57.89Z" transform="translate(-168.48 -141.71)"/><path class="cls-2" d="M360,377.34c0,.64.28,1.23.92,1.23a2.86,2.86,0,0,0,2.06-.84c.14-.1.21-.2.35-.2s.21.1.21.25a4,4,0,0,1-3.68,2.91,5.34,5.34,0,0,1-4.19-1.87,8.51,8.51,0,0,1-4.89,1.87c-2.77,0-6.18-1.23-6.18-8,0-5.52,1.21-7,9-11.34,1.42-.79,1.42-1.23,1.42-3.26s-.71-2.71-3-2.71a13.76,13.76,0,0,0-6.31,2,1,1,0,0,1-.57.15c-.14,0-.21-.1-.21-.25,0-.59,4-4,8-4,2.56,0,7,1.09,7,6.17Zm-5-14.6h-.14c-3.9,2.32-5,4-5,9.07,0,5.63.78,6.76,2.34,6.76a3,3,0,0,0,2.84-2.91Z" transform="translate(-168.48 -141.71)"/><path class="cls-2" d="M371.53,377.14v-33.2l-.25-.24h-7v.61a2.28,2.28,0,0,1,1.81.63,4.21,4.21,0,0,1,.43,2.31v29.89a4.21,4.21,0,0,1-.43,2.31,2.36,2.36,0,0,1-1.81.63v.6h9.45v-.6a2.37,2.37,0,0,1-1.81-.63A4.21,4.21,0,0,1,371.53,377.14Z" transform="translate(-168.48 -141.71)"/><path class="cls-2" d="M324.65,379.45a4.21,4.21,0,0,1-.43-2.31V353.51h0c0-.12-.07-.19-.22-.22h-7v.61a2.3,2.3,0,0,1,1.81.63,4.21,4.21,0,0,1,.43,2.31v17.81c0,2.41-1.49,3.94-3.19,3.94-1.85,0-2.77-1-2.77-2.86V353.57s0,0,0,0v0l0,0a.25.25,0,0,0-.18-.18l0,0h-7v.61a2.26,2.26,0,0,1,1.8.63,4.1,4.1,0,0,1,.44,2.31v18.32s0,.31,0,.59,0,.53,0,.57c.24,2.92,2.15,4.39,6,4.39a6.9,6.9,0,0,0,4.76-1.87h.14v1.67c0,.1.21.2.49.2h6.72v-.6A2.36,2.36,0,0,1,324.65,379.45Z" transform="translate(-168.48 -141.71)"/><path class="cls-2" d="M339.25,353.27c-1.63,0-2.84,1-4,2h-.13v-1.73l-.25-.24h-7v.61a2.3,2.3,0,0,1,1.81.63,4.14,4.14,0,0,1,.43,2.23h0v20.34a4.46,4.46,0,0,1-.43,2.37,2.37,2.37,0,0,1-1.81.63v.6h9.45v-.6a2.36,2.36,0,0,1-1.81-.63,4.21,4.21,0,0,1-.43-2.31V360c0-2.45,1.3-4.4,3.32-4.4a4.07,4.07,0,0,1,3.69,1.87c.14.25.29.45.57.45s.35-.2.35-.45C343.08,355.89,341.59,353.27,339.25,353.27Z" transform="translate(-168.48 -141.71)"/></svg>