<svg id="图层_1" data-name="图层 1" xmlns="http://www.w3.org/2000/svg" viewBox="0 0 400.1 283.57"><defs><style>.cls-1{fill:#fff;}.cls-2{fill:#bcac84;}.cls-3{fill:#350989;}</style></defs><title>自然道logo</title><rect class="cls-1" width="400.1" height="283.57"/><circle class="cls-2" cx="200.05" cy="101.25" r="74.61"/><path class="cls-3" d="M368.53,242.83l19.35-30,9.42-31.05s-17.44-3.68-28.92-13c-11.45,9.32-28.61,13-28.61,13l9.42,31.05Z" transform="translate(-168.53 -141.51)"/><path class="cls-3" d="M368.53,242.83l2.08,35.61,10.72,30.62s16.25-7.31,31-6.57c3.75-14.28,15.43-27.39,15.43-27.39l-25.94-19.5Z" transform="translate(-168.53 -141.51)"/><path class="cls-3" d="M368.53,242.83l-33.25,12.88L309.4,275.28s11.94,13.24,15.75,27.52c14.74-.8,30.8,6.3,30.8,6.3l10.62-30.66Z" transform="translate(-168.53 -141.51)"/><path class="cls-3" d="M368.53,242.84l-22.44-27.72-26.56-18.64s-8.94,15.42-21.37,23.42c5.28,13.79,3.43,31.25,3.43,31.25l32.44.72Z" transform="translate(-168.53 -141.51)"/><path class="cls-3" d="M368.53,242.83,403,252.14l32.45-.47s-1.8-17.74,3.58-31.5c-12.36-8.08-21.1-23.31-21.1-23.31l-26.7,18.43Z" transform="translate(-168.53 -141.51)"/><rect class="cls-3" x="66.51" y="197.51" width="244.55" height="47.94"/><path class="cls-2" d="M380,377V351.13a4.23,4.23,0,0,0-.42-2.28,2.14,2.14,0,0,0-1.74-.63v-.6h10.4a27.91,27.91,0,0,1,6.28.55A16.47,16.47,0,0,1,407,364.09a16.26,16.26,0,0,1-2,7.85,16.58,16.58,0,0,1-3.85,4.69,15.2,15.2,0,0,1-5.33,3,24.16,24.16,0,0,1-7.12.9l-4.67,0h-6.16v-.61a2.18,2.18,0,0,0,1.74-.62A4.27,4.27,0,0,0,380,377Zm5.25-1h2.58a19.72,19.72,0,0,0,5.3-.53A11.76,11.76,0,0,0,400,370a11.82,11.82,0,0,0-.53-12.61q-3.63-5.28-10.86-5.28h-3.37Z" transform="translate(-168.53 -141.51)"/><path class="cls-2" d="M427.62,372.18H415.05l-1.88,4.19a5.55,5.55,0,0,0-.6,2.14,1.21,1.21,0,0,0,.33,1,2.33,2.33,0,0,0,1.24.41v.61h-9.68v-.61a3.42,3.42,0,0,0,1.81-.49,4.78,4.78,0,0,0,1.15-1.77l14-31.44,14.39,31.25a7.76,7.76,0,0,0,1.17,1.95,2.21,2.21,0,0,0,1.46.5v.61h-9.87v-.61a2.56,2.56,0,0,0,1.3-.34,1.12,1.12,0,0,0,.36-.93,4.64,4.64,0,0,0-.53-1.83Zm-2.07-4.46-4.21-9.36-4.29,9.36Z" transform="translate(-168.53 -141.51)"/><path class="cls-2" d="M453.31,347A15.92,15.92,0,0,1,461,349a17.09,17.09,0,0,1,9.15,15.34,16.13,16.13,0,0,1-1.85,7.41,16.75,16.75,0,0,1-7.47,7.51,16.28,16.28,0,0,1-7.61,1.83,17,17,0,0,1-17.09-17,17,17,0,0,1,17.19-17Zm-.05,4.82a10.89,10.89,0,0,0-9,4.33,12.35,12.35,0,0,0-2.74,7.83,12.49,12.49,0,0,0,2.28,7.25,10.68,10.68,0,0,0,9.2,5,11.33,11.33,0,0,0,6.82-2.22,11.61,11.61,0,0,0,3.83-4.86,12.29,12.29,0,0,0,1.05-4.91,12.43,12.43,0,0,0-4-9.42A10.86,10.86,0,0,0,453.26,351.86Z" transform="translate(-168.53 -141.51)"/><path class="cls-3" d="M489.46,340.21V339H491v1.17h7.27a4.45,4.45,0,0,1,1.08.09,2,2,0,0,1,1.13.74,2.17,2.17,0,0,1,.41,1.31v8.38A2.11,2.11,0,0,1,498.6,353H489a5.24,5.24,0,0,1-1-.07,2,2,0,0,1-1.4-1.06,3.12,3.12,0,0,1-.2-1.28v-8a2.25,2.25,0,0,1,.89-2,2.15,2.15,0,0,1,1.25-.39Zm-1.53,3.62h11.42v-1.24a.79.79,0,0,0-.37-.67,1.67,1.67,0,0,0-.93-.18h-8.66a4.05,4.05,0,0,0-.81.05.79.79,0,0,0-.64.8Zm0,3.73h11.42v-2.2H487.93Zm11.42,1.54H487.93v1.5a.8.8,0,0,0,.39.75,1.84,1.84,0,0,0,.8.12h9.43a.73.73,0,0,0,.55-.28.88.88,0,0,0,.24-.62Z" transform="translate(-168.53 -141.51)"/><path class="cls-3" d="M485.89,359.48v-1.63a2,2,0,0,0,.73-.19,2.27,2.27,0,0,0,.89-1.72h1.66l-.11.68h2.74c1.27,0,1.9.42,1.9,1.27a11,11,0,0,1-.41,2.27,11.73,11.73,0,0,1-1.46,3.5,6.24,6.24,0,0,1-3.51,2.6,9.82,9.82,0,0,1-2.41.34V365a7.18,7.18,0,0,0,2.24-.35,4.94,4.94,0,0,0,1.43-.87h-3.67v-1.53h3.89v1.36a9.2,9.2,0,0,0,1.45-2.58,9,9,0,0,0,.65-2.39c0-.2,0-.33-.12-.37a1,1,0,0,0-.54-.1h-2.79a3.55,3.55,0,0,1-1.34,1.05A6.67,6.67,0,0,1,485.89,359.48Zm0,1.88v-1.54h3.91v1.54Zm0,8.71v-1.3c.23,0,.35-.16.35-.36v-.87h1.42v.71a1.81,1.81,0,0,1-.21,1A1.92,1.92,0,0,1,485.92,370.07Zm4.75,0v-2.53h1.41v2.53Zm3.47-3.5v-1.73q2.12-1.6,2.73-5.56h-2.68v-1.54H497V356h1.55v1.74h1v-1.62H501v1.62h.24v1.53h-2.59a10.74,10.74,0,0,0,1,3.15,8.23,8.23,0,0,0,1.61,2.11v1.92a8.7,8.7,0,0,1-1.73-1.3,7.75,7.75,0,0,1-1.71-3.27A7.82,7.82,0,0,1,494.14,366.57Zm1.2,3.5,0-2.52h1.45v2.53Zm4.45,0v-2.52h1.43v2.53Z" transform="translate(-168.53 -141.51)"/><path class="cls-3" d="M486,387v-1.49a1.23,1.23,0,0,0,1.13-1.34v-5.35a.65.65,0,0,0-.74-.72H486v-1.55h.81a2.1,2.1,0,0,1,1.37.37,1.86,1.86,0,0,1,.48,1.46v5.93c0,.77.43,1.15,1.28,1.15h11.39V387H490.1a3.63,3.63,0,0,1-1.39-.23,2.77,2.77,0,0,1-.82-.58,3.34,3.34,0,0,1-.84.59A2.84,2.84,0,0,1,486,387Zm0-12.51v-1.6h2.87v1.6Zm3.7.84v-1.52h1.6v-.91h1.53v.91h5v-.91h1.53v.91h1.91v1.53h-5.19v1.06h3.22c1.2,0,1.8.53,1.8,1.6v5a1.53,1.53,0,0,1-.45,1.18,1.83,1.83,0,0,1-1.25.34h-7.82c-1.1,0-1.65-.48-1.65-1.45V378c0-1.07.56-1.6,1.69-1.6h2.91v-1.06Zm1.67,5.46h8.33v-.89H491.4Zm8.33,1.31H491.4v.6a.39.39,0,0,0,.13.33.74.74,0,0,0,.38.06h7.29q.5,0,.51-.45Zm-8.32-3.49h8.32v-.28a.46.46,0,0,0-.51-.51H492c-.39,0-.58.16-.58.49Z" transform="translate(-168.53 -141.51)"/><path class="cls-2" d="M268.61,381.88l-17.22-24.65V377a4.27,4.27,0,0,0,.42,2.29,2.22,2.22,0,0,0,1.75.63v.6h-9.13v-.6a2.24,2.24,0,0,0,1.75-.63,4.27,4.27,0,0,0,.42-2.29V351.14a4.24,4.24,0,0,0-.42-2.29,2.17,2.17,0,0,0-1.75-.63v-.6h6.72l12.66,18.13V351.14a4.24,4.24,0,0,0-.42-2.29,2.14,2.14,0,0,0-1.74-.63v-.6h9.12v.6a2.14,2.14,0,0,0-1.74.63,4.24,4.24,0,0,0-.42,2.29Z" transform="translate(-168.53 -141.51)"/><path class="cls-2" d="M289.36,377.13c0,.65.29,1.24.92,1.24a2.86,2.86,0,0,0,2.06-.84c.14-.1.21-.2.36-.2s.21.1.21.25a4,4,0,0,1-3.69,2.91,5.33,5.33,0,0,1-4.19-1.88,8.39,8.39,0,0,1-4.89,1.88c-2.77,0-6.17-1.24-6.17-8,0-5.53,1.2-7,9-11.34,1.42-.79,1.42-1.24,1.42-3.26s-.71-2.71-3-2.71a13.69,13.69,0,0,0-6.32,2,1,1,0,0,1-.56.15c-.15,0-.22-.1-.22-.25,0-.59,4.05-4,8-4,2.55,0,7,1.08,7,6.16Zm-5-14.59h-.15c-3.9,2.31-5,4-5,9.07,0,5.62.78,6.76,2.34,6.76a3,3,0,0,0,2.84-2.91Z" transform="translate(-168.53 -141.51)"/><path class="cls-2" d="M300.85,376.59a1.68,1.68,0,0,0,1.71,1.78,3.28,3.28,0,0,0,2.2-1,.81.81,0,0,1,.42-.2.22.22,0,0,1,.21.3,4.81,4.81,0,0,1-4.89,3.06c-3,0-4.61-.94-4.61-5v-20a.75.75,0,0,0-.21-.64l-2.06-1.38c-.14-.1-.36-.2-.36-.3s.29-.29,1-.34c3.12-.39,3.47-4.14,3.47-6.12,0-.24.21-.44.57-.44h2.13c.28,0,.42.1.42.35v5.67c0,.24.07.44.57.44h1.63c.36,0,.43.35,0,.59l-1.63,1.29c-.21.24-.57.54-.57.88Z" transform="translate(-168.53 -141.51)"/><path class="cls-2" d="M360.09,377.13c0,.65.28,1.24.92,1.24a2.86,2.86,0,0,0,2.06-.84c.14-.1.21-.2.35-.2s.21.1.21.25a4,4,0,0,1-3.68,2.91,5.31,5.31,0,0,1-4.19-1.88,8.42,8.42,0,0,1-4.89,1.88c-2.77,0-6.18-1.24-6.18-8,0-5.53,1.21-7,9-11.34,1.42-.79,1.42-1.24,1.42-3.26s-.71-2.71-3-2.71a13.69,13.69,0,0,0-6.31,2,1,1,0,0,1-.57.15c-.14,0-.21-.1-.21-.25,0-.59,4-4,8-4,2.56,0,7,1.08,7,6.16Zm-5-14.59H355c-3.9,2.31-5,4-5,9.07,0,5.62.78,6.76,2.34,6.76a3,3,0,0,0,2.84-2.91Z" transform="translate(-168.53 -141.51)"/><path class="cls-2" d="M371.58,376.93V343.74l-.25-.24h-7v.61a2.28,2.28,0,0,1,1.81.63,4.17,4.17,0,0,1,.43,2.3v29.89a4.21,4.21,0,0,1-.43,2.31,2.28,2.28,0,0,1-1.81.63v.61h9.45v-.61a2.26,2.26,0,0,1-1.8-.63A4.1,4.1,0,0,1,371.58,376.93Z" transform="translate(-168.53 -141.51)"/><path class="cls-2" d="M324.7,379.24a4.21,4.21,0,0,1-.43-2.31V353.31l0,0a.22.22,0,0,0-.22-.21h-7v.6a2.32,2.32,0,0,1,1.81.64,4.15,4.15,0,0,1,.43,2.3v17.81c0,2.42-1.49,3.95-3.19,3.95-1.85,0-2.77-1-2.77-2.86V353.36s0,0,0,0v0l0,0a.23.23,0,0,0-.18-.17l0,0h-7v.6a2.34,2.34,0,0,1,1.81.64,4.15,4.15,0,0,1,.43,2.3v18.33s0,.3,0,.58,0,.54,0,.57c.24,2.92,2.15,4.4,6,4.4a6.86,6.86,0,0,0,4.76-1.88h.14v1.68c0,.1.21.2.49.2h6.72v-.61A2.3,2.3,0,0,1,324.7,379.24Z" transform="translate(-168.53 -141.51)"/><path class="cls-2" d="M339.3,353.07c-1.63,0-2.83,1-4,2h-.13v-1.73l-.25-.24h-7v.6a2.32,2.32,0,0,1,1.81.64,4.1,4.1,0,0,1,.43,2.22h0v20.35a4.42,4.42,0,0,1-.43,2.36,2.28,2.28,0,0,1-1.81.63v.61h9.45v-.61a2.3,2.3,0,0,1-1.81-.63,4.21,4.21,0,0,1-.43-2.31V359.78c0-2.44,1.3-4.4,3.32-4.4a4.08,4.08,0,0,1,3.69,1.88c.14.25.29.44.57.44s.35-.19.35-.44C343.13,355.68,341.64,353.07,339.3,353.07Z" transform="translate(-168.53 -141.51)"/></svg>